<svg xmlns="http://www.w3.org/2000/svg" width="24" height="24" fill="none"
  viewBox="0 0 24 24">
  <metadata>
    <rdf:RDF xmlns:rdf="http://www.w3.org/1999/02/22-rdf-syntax-ns#"
      xmlns:dc="http://purl.org/dc/elements/1.1/"
      xmlns:cc="http://creativecommons.org/ns#">
      <cc:Work rdf:about="">
        <dc:title>Moon</dc:title>
        <dc:creator>REICON</dc:creator>
        <dc:rights>Copyright (c) 2025 REICON. SPDX-License-Identifier: MIT</dc:rights>
        <dc:date>2025</dc:date>
        <dc:source
          rdf:resource="https://github.com/tofulupo/apple-dns-profile-creator" />
        <dc:relation>apple-dns-profile-creator</dc:relation>
        <cc:license rdf:resource="https://opensource.org/license/mit" />
      </cc:Work>
    </rdf:RDF>
  </metadata>
  <path fill="currentColor" fill-rule="evenodd"
    d="M11.02 2.8A9.25 9.25 0 1 0 21.2 12.98 7.24 7.24 0 0 1 8.25 8.5a7.2 7.2 0 0 1 2.77-5.7M1.25 12C1.25 6.06 6.06 1.25 12 1.25c.72 0 1.08.57 1.14 1.03.06.43-.1 1-.6 1.3a5.75 5.75 0 1 0 7.89 7.89c.3-.5.86-.67 1.3-.6.45.05 1.02.41 1.02 1.13a10.75 10.75 0 1 1-21.5 0"
    clip-rule="evenodd" />
</svg>
